Hanif_Medium_7_5_grf.mot
version=1
nRows=47
nColumns=19
inDegrees=yes
endheader
time	right_ground_force_vx	right_ground_force_vy	right_ground_force_vz	right_ground_force_px	right_ground_force_py	right_ground_force_pz	right_ground_torque_x	right_ground_torque_y	right_ground_torque_z	left_ground_force_vx	left_ground_force_vy	left_ground_force_vz	left_ground_force_px	left_ground_force_py	left_ground_force_pz	left_ground_torque_x	left_ground_torque_y	left_ground_torque_z
0.000000	4.869410	263.574000	55.661300	0.196378	0.000000	-1.444570	-16.162700	2.047020	-0.628154	-13.194400	320.889000	-55.835300	0.258561	0.000000	-0.983050	25.819000	1.119640	19.349500
0.005000	4.978660	263.723000	55.699100	0.196315	0.000000	-1.443640	-16.417100	2.063890	-0.644755	-13.430500	322.158000	-55.659600	0.257644	0.000000	-0.982456	25.734800	0.977430	19.140400
0.010000	4.566070	264.827000	55.872600	0.195521	0.000000	-1.444050	-16.377600	2.126180	-0.849987	-13.636600	321.994000	-55.653000	0.257547	0.000000	-0.981911	25.546700	1.022820	19.092400
0.015000	4.625870	266.794000	56.171800	0.194679	0.000000	-1.443810	-16.563500	2.232680	-1.073100	-12.981200	321.855000	-56.351100	0.257723	0.000000	-0.981960	25.547700	0.955086	19.160100
0.020000	4.576320	265.779000	56.668500	0.194571	0.000000	-1.443770	-16.510100	2.245180	-1.090620	-13.267200	321.297000	-56.194000	0.257050	0.000000	-0.982068	25.540500	0.957784	18.906500
0.025000	4.995610	268.938000	56.691900	0.194083	0.000000	-1.445310	-16.291400	2.259730	-1.249510	-13.019400	323.096000	-56.496300	0.256537	0.000000	-0.981655	25.546900	0.895698	18.847700
0.030000	4.921120	267.649000	57.036400	0.193479	0.000000	-1.445150	-16.257600	2.285460	-1.401320	-13.169000	322.082000	-56.272500	0.256778	0.000000	-0.981240	25.333200	0.961675	18.857400
0.035000	4.372650	268.258000	57.482800	0.192764	0.000000	-1.445240	-16.272100	2.352590	-1.583060	-13.078900	323.031000	-56.321400	0.256183	0.000000	-0.981711	25.561500	0.847236	18.732200
0.040000	4.735280	269.586000	56.862400	0.191594	0.000000	-1.445320	-16.327900	2.455450	-1.909670	-13.229900	324.384000	-56.626200	0.256082	0.000000	-0.981255	25.516800	0.969144	18.758000
0.045000	4.946400	269.807000	57.654300	0.191090	0.000000	-1.446760	-15.953000	2.519840	-2.037990	-13.223000	323.146000	-56.544000	0.256295	0.000000	-0.981590	25.531900	0.901153	18.772600
0.050000	4.683550	270.365000	57.868200	0.190895	0.000000	-1.446450	-16.069000	2.634170	-2.070340	-12.731500	324.496000	-56.714900	0.256011	0.000000	-0.981303	25.539200	0.855029	18.755200
0.055000	4.866030	270.804000	57.553500	0.190067	0.000000	-1.447560	-15.793200	2.638590	-2.311180	-12.989000	325.399000	-56.532100	0.255048	0.000000	-0.981066	25.532500	0.873329	18.477700
0.060000	4.781290	270.727000	57.826400	0.188814	0.000000	-1.447320	-15.855500	2.628550	-2.665070	-13.221000	323.874000	-56.361700	0.255840	0.000000	-0.981084	25.421700	0.941768	18.648700
0.065000	5.326640	270.635000	58.093700	0.187792	0.000000	-1.448260	-15.589600	2.852750	-2.909800	-13.061500	323.875000	-56.318400	0.255794	0.000000	-0.981474	25.546300	0.933074	18.632500
0.070000	5.406130	270.923000	58.149700	0.186661	0.000000	-1.447890	-15.708600	2.852090	-3.235620	-13.103600	325.635000	-56.297800	0.255393	0.000000	-0.981690	25.757400	0.841967	18.609900
0.075000	5.461360	271.495000	59.334800	0.185870	0.000000	-1.448290	-15.629100	3.144550	-3.401150	-13.085200	324.807000	-56.409700	0.255557	0.000000	-0.981720	25.702200	0.849756	18.621100
0.080000	5.503260	273.017000	60.298900	0.184532	0.000000	-1.450000	-15.248000	3.265530	-3.775850	-13.241100	326.982000	-56.972400	0.255125	0.000000	-0.981212	25.711200	0.786186	18.615700
0.085000	5.378050	273.188000	60.901200	0.182307	0.000000	-1.449480	-15.399000	3.463200	-4.369490	-13.005100	327.999000	-56.773000	0.255608	0.000000	-0.981489	25.876100	0.856149	18.814200
0.090000	5.841630	274.306000	61.664100	0.180727	0.000000	-1.449980	-15.317400	3.779730	-4.777750	-13.267800	329.092000	-56.882800	0.254985	0.000000	-0.981008	25.805600	0.848581	18.668100
0.095000	6.352020	275.679000	61.756700	0.178255	0.000000	-1.451610	-14.940200	4.024640	-5.471170	-13.320800	329.278000	-56.629200	0.255473	0.000000	-0.981036	25.831300	0.823728	18.843600
0.100000	7.331090	272.673000	61.709300	0.175545	0.000000	-1.451350	-14.828800	4.591950	-6.061060	-13.340700	327.436000	-56.648300	0.255581	0.000000	-0.981718	25.909700	0.892191	18.771400
0.105000	7.732770	273.123000	61.021900	0.173841	0.000000	-1.451520	-14.799000	4.851680	-6.511490	-13.715300	326.804000	-56.357800	0.256425	0.000000	-0.981472	25.785100	0.914326	19.016300
0.110000	8.582640	273.992000	60.246900	0.172034	0.000000	-1.451530	-14.828200	5.185730	-6.995430	-13.755600	325.719000	-56.045700	0.255578	0.000000	-0.981735	25.788100	0.824529	18.683400
0.115000	9.053380	271.560000	59.509000	0.169988	0.000000	-1.452440	-14.439400	5.427070	-7.458370	-14.001600	325.368000	-55.808500	0.256062	0.000000	-0.981089	25.552100	0.870092	18.815900
0.120000	10.518800	270.918000	58.581700	0.168079	0.000000	-1.452430	-14.387100	5.668760	-7.948390	-13.885200	323.623000	-55.877800	0.256498	0.000000	-0.981252	25.467500	0.898597	18.861700
0.125000	11.178600	269.562000	57.828800	0.166372	0.000000	-1.451470	-14.557000	5.963100	-8.333470	-13.743100	323.436000	-54.938000	0.255920	0.000000	-0.981924	25.668800	0.813051	18.654600
0.130000	11.574800	270.008000	57.479100	0.165206	0.000000	-1.452070	-14.412900	6.091480	-8.656590	-13.786500	322.700000	-54.887400	0.256494	0.000000	-0.981776	25.565000	0.817725	18.803600
0.135000	12.637200	268.294000	57.086500	0.163051	0.000000	-1.452260	-14.254900	6.261620	-9.174280	-13.912400	322.066000	-54.655800	0.256405	0.000000	-0.981974	25.582700	0.758012	18.747300
0.140000	12.814200	266.235000	56.376600	0.161368	0.000000	-1.453080	-13.917700	6.427550	-9.529000	-14.071000	321.350000	-54.193800	0.256747	0.000000	-0.982904	25.828300	0.744164	18.818400
0.145000	13.126500	266.843000	56.657200	0.158967	0.000000	-1.453520	-13.827700	6.611440	-10.185400	-13.938500	324.484000	-53.733800	0.255884	0.000000	-0.981747	25.695300	0.767795	18.685300
0.150000	13.651000	264.408000	56.933100	0.157365	0.000000	-1.452980	-13.837300	6.664330	-10.516700	-14.145100	324.195000	-54.329000	0.256784	0.000000	-0.982322	25.869000	0.697118	18.997400
0.155000	13.830700	262.433000	57.220100	0.155764	0.000000	-1.453120	-13.694500	6.740980	-10.850500	-14.359400	326.589000	-54.435200	0.256776	0.000000	-0.981788	25.883700	0.754962	19.120300
0.160000	14.228300	260.745000	57.143900	0.153925	0.000000	-1.454040	-13.355100	6.926000	-11.235100	-14.423600	326.682000	-54.496300	0.257072	0.000000	-0.981842	25.910700	0.747341	19.228300
0.165000	14.886000	259.581000	57.144100	0.151828	0.000000	-1.453180	-13.507000	7.104120	-11.719700	-14.276000	326.411000	-54.587700	0.257683	0.000000	-0.982653	26.152500	0.789876	19.413000
0.170000	15.227200	258.430000	56.861100	0.150149	0.000000	-1.453860	-13.265000	7.167360	-12.104400	-14.818800	327.884000	-54.205500	0.257728	0.000000	-0.981697	25.958100	0.878025	19.492900
0.175000	13.474100	255.723000	59.486300	0.148993	0.000000	-1.454320	-13.048200	6.898510	-12.306800	-15.267500	329.543000	-54.460700	0.257977	0.000000	-0.982261	26.281800	0.871997	19.683600
0.180000	14.641700	254.551000	59.592500	0.147237	0.000000	-1.453610	-13.169500	6.800810	-12.754400	-15.381300	329.720000	-54.678700	0.258073	0.000000	-0.982806	26.479500	0.846388	19.737800
0.185000	15.353300	253.861000	58.919200	0.146383	0.000000	-1.453320	-13.190000	7.009810	-12.905200	-15.826800	329.722000	-54.457900	0.258430	0.000000	-0.982728	26.457700	0.909140	19.849400
0.190000	16.024000	253.831000	58.949100	0.145700	0.000000	-1.453970	-13.014700	7.066250	-13.079100	-16.083000	330.279000	-54.453200	0.258036	0.000000	-0.982464	26.417000	0.911509	19.749500
0.195000	16.104400	252.682000	56.609600	0.144855	0.000000	-1.453090	-13.172500	7.074010	-13.239500	-16.792300	329.824000	-54.215500	0.258736	0.000000	-0.983010	26.571900	0.941901	19.962000
0.200000	16.208200	252.089000	55.748500	0.143845	0.000000	-1.452820	-13.199400	7.189060	-13.449100	-16.734600	329.632000	-54.448700	0.259061	0.000000	-0.981716	26.125500	1.024570	20.047800
0.205000	17.109300	250.445000	53.651300	0.143918	0.000000	-1.452740	-13.111300	7.256820	-13.330800	-16.944800	329.544000	-54.142700	0.259189	0.000000	-0.982648	26.429400	1.020030	20.086000
0.210000	17.741000	250.478000	51.921200	0.143095	0.000000	-1.451220	-13.474300	7.420480	-13.529200	-16.918200	329.025000	-53.917600	0.258850	0.000000	-0.982558	26.359500	0.962237	19.946100
0.215000	18.202200	250.251000	50.156100	0.142219	0.000000	-1.451210	-13.436100	7.661450	-13.704900	-17.055300	328.079000	-53.985400	0.259110	0.000000	-0.982623	26.311600	0.915304	19.990600
0.220000	19.070500	250.092000	48.213400	0.141574	0.000000	-1.451250	-13.382500	7.933890	-13.826600	-17.219300	328.830000	-53.802700	0.258427	0.000000	-0.982610	26.366900	0.912425	19.802000
0.225000	20.158100	250.696000	47.757100	0.141117	0.000000	-1.450690	-13.529600	8.109370	-13.965100	-16.896300	329.649000	-53.588600	0.258157	0.000000	-0.982275	26.321300	0.783583	19.768500
0.230000	20.049900	251.614000	47.495300	0.140469	0.000000	-1.450510	-13.634900	8.049760	-14.203100	-16.924400	330.119000	-53.971400	0.258201	0.000000	-0.981969	26.255400	0.845020	19.807300
